<svg width="36" height="28" viewBox="0 0 36 28" fill="none" xmlns="http://www.w3.org/2000/svg">
<path d="M32.8506 0.1875H3.14925C2.31788 0.199908 1.5241 0.533175 0.936159 1.11661C0.34822 1.70005 0.012382 2.48779 -0.00012207 3.31281V24.2764C-0.00012207 24.6868 0.0814425 25.0932 0.239715 25.4724C0.397987 25.8515 0.629958 26.1961 0.922408 26.4863C1.21486 26.7765 1.56205 27.0067 1.94415 27.1638C2.32626 27.3208 2.73567 27.4017 3.14925 27.4017H32.8506C33.2642 27.4017 33.6737 27.3208 34.0558 27.1638C34.4379 27.0067 34.7851 26.7765 35.0776 26.4863C35.37 26.1961 35.602 25.8515 35.7603 25.4724C35.9186 25.0932 36.0001 24.6868 36.0001 24.2764V3.31281C35.9876 2.48779 35.6518 1.70005 35.0638 1.11661C34.4759 0.533175 33.682 0.199908 32.8506 0.1875ZM32.4145 2.3031L17.8788 16.7276L3.34311 2.3031H32.4145ZM2.1318 23.8436V3.74556L12.2583 13.7465L2.1318 23.8436ZM3.63381 25.3342L13.7603 15.237L17.3459 18.747C17.5512 18.9328 17.8191 19.0358 18.0969 19.0358C18.3748 19.0358 18.6426 18.9328 18.8479 18.747L22.288 15.2851L32.4145 25.3342H3.63381ZM33.9166 23.8436L23.79 13.7946L33.9166 3.79362V23.8436Z" fill="black"/>
</svg>
