<svg width="33" height="34" viewBox="0 0 33 34" fill="none" xmlns="http://www.w3.org/2000/svg">
<path d="M29.1622 0.786255H4.39654C3.3932 0.797703 2.43426 1.20069 1.72475 1.909C1.01524 2.61731 0.611565 3.57469 0.600098 4.57633V29.2999C0.600098 30.3051 1.0001 31.2691 1.71208 31.9799C2.42407 32.6907 3.38964 33.09 4.39654 33.09H29.1622C29.6624 33.0959 30.1587 33.0019 30.622 32.8135C31.0853 32.6251 31.5061 32.3462 31.8598 31.9931C32.2135 31.6399 32.4931 31.2198 32.6817 30.7573C32.8704 30.2948 32.9645 29.7993 32.9586 29.2999V4.57633C32.9586 3.57114 32.5586 2.6071 31.8466 1.89632C31.1346 1.18555 30.1691 0.786255 29.1622 0.786255ZM30.4423 29.2999C30.4423 29.6389 30.3074 29.964 30.0674 30.2036C29.8273 30.4433 29.5017 30.578 29.1622 30.578H21.9664V20.3095H25.8953L26.5134 16.3872H22.0989V13.6548C22.0989 13.406 22.1479 13.1596 22.2433 12.9297C22.3387 12.6997 22.4786 12.4908 22.6549 12.3149C22.8311 12.1389 23.0404 11.9993 23.2707 11.9041C23.501 11.8089 23.7478 11.7598 23.9971 11.7598H26.6017V7.83754H23.9971C22.4516 7.83754 20.9695 8.45043 19.8767 9.54139C18.7838 10.6323 18.1699 12.112 18.1699 13.6548V16.3872H14.3734V20.3095H18.2141V30.578H4.57315C4.23362 30.578 3.90792 30.4433 3.66783 30.2036C3.42774 29.964 3.2929 29.6389 3.2929 29.2999V4.57633C3.2929 4.23737 3.42774 3.91228 3.66783 3.6726C3.90792 3.43292 4.23362 3.29828 4.57315 3.29828H29.3386C29.6782 3.29828 30.0039 3.43292 30.244 3.6726C30.4841 3.91228 30.6189 4.23737 30.6189 4.57633L30.4423 29.2999Z" fill="black"/>
</svg>
