<svg width="38" height="33" viewBox="0 0 38 33" fill="none" xmlns="http://www.w3.org/2000/svg">
<path fill-rule="evenodd" clip-rule="evenodd" d="M37.4514 1.06712C37.7317 1.32556 37.8531 1.7149 37.7695 2.08783L31.0766 31.97C30.9976 32.3227 30.7463 32.6112 30.4089 32.7366C30.0715 32.862 29.6939 32.8073 29.4055 32.5913L21.0016 26.2946L14.2822 30.8539C13.9887 31.0531 13.6156 31.0921 13.2875 30.9579C12.9594 30.8238 12.7195 30.5341 12.6477 30.1856L10.3903 19.2163L1.49074 13.834C1.13322 13.6178 0.93483 13.2113 0.983631 12.7948C1.03243 12.3784 1.31938 12.0293 1.7171 11.9024L36.412 0.836297C36.7746 0.720645 37.1711 0.808693 37.4514 1.06712ZM12.5357 19.101L13.9285 25.8687L15.466 21.2333C15.5174 21.0781 15.6037 20.9368 15.7182 20.8205L23.1167 13.2994L12.5357 19.101ZM15.6837 27.3274L19.1977 24.943L17.0166 23.3088L15.6837 27.3274ZM18.0872 21.4485L29.3635 29.8973L35.2909 3.43329L4.59901 13.2226L11.3621 17.3129L28.4463 7.94566C28.9089 7.69203 29.4866 7.81756 29.8035 8.24057C30.1205 8.66359 30.0809 9.25615 29.7104 9.63273L18.0872 21.4485Z" fill="black"/>
</svg>
