<svg width="35" height="35" viewBox="0 0 35 35" fill="none" xmlns="http://www.w3.org/2000/svg">
<path fill-rule="evenodd" clip-rule="evenodd" d="M8.40459 1.00058C8.72203 1.05077 9.00609 1.22613 9.19321 1.48741L14.6767 9.1442C15.0267 9.63286 14.9614 10.305 14.5239 10.7172L11.4443 13.6184C12.0357 15.0617 13.102 17.052 14.6449 18.9507C16.3266 21.02 18.5193 22.914 21.2092 23.9211L24.5216 20.755C24.9441 20.3512 25.5961 20.3103 26.0658 20.6581L33.6387 26.2665C34.1583 26.6514 34.2798 27.3787 33.9135 27.9115L30.2004 33.3126C30.1216 33.4272 30.0235 33.5272 29.9105 33.6083C29.0495 34.2254 27.8458 34.5493 26.4905 34.5971C25.1145 34.6456 23.4923 34.4142 21.706 33.8265C18.1289 32.6498 13.838 30.028 9.41592 25.2134C4.43446 19.7897 1.98581 15.5533 1.02136 12.3516C0.0611312 9.16394 0.536895 6.82349 1.71891 5.51847C1.77246 5.45935 1.83177 5.40571 1.89595 5.35835L7.50426 1.22036C7.76286 1.02955 8.08716 0.950386 8.40459 1.00058ZM3.43412 7.20756C3.03426 7.72236 2.53928 9.06539 3.32056 11.659C4.14035 14.3805 6.33162 18.3055 11.1844 23.589C15.3818 28.159 19.3373 30.5195 22.4563 31.5455C24.018 32.0592 25.3563 32.2343 26.4059 32.1973C27.3367 32.1645 27.9778 31.9685 28.358 31.7539L31.2781 27.5064L25.4496 23.1898L22.3411 26.1609C22.0259 26.4623 21.572 26.5689 21.1556 26.4396C17.5675 25.3257 14.7855 22.9313 12.7814 20.4651C10.7782 18 9.48792 15.3856 8.90286 13.684C8.74946 13.2379 8.87156 12.7432 9.21494 12.4197L12.1134 9.68906L7.95001 3.87559L3.43412 7.20756Z" fill="black"/>
</svg>
